<?xml version="1.0" encoding="UTF-8"?>
<svg id="Layer_1" xmlns="http://www.w3.org/2000/svg" version="1.1" viewBox="0 0 524.7 184.1">
  <!-- Generator: Adobe Illustrator 30.5.1, SVG Export Plug-In . SVG Version: 2.1.4 Build 3)  -->
  <defs>
    <style>
      .st0 {
        stroke: #fff;
        stroke-miterlimit: 10;
        stroke-width: .2px;
      }
    </style>
  </defs>
  <path class="st0" d="M434.8,71.3c-1.3-5.8-8-2.3-13.9-.3l4.4,10.4s10.8-4.3,9.5-10.1Z"/>
  <path class="st0" d="M523.5,57.6c-21.8.3-41.3,0-46.9,0-.7,0-1.2-.8-.9-1.5l21.5-41.8c.4-.7-.8-1.9-1.5-1.4-21.4,13.2-140.3,79.4-258.3,22.9C112.5-24.1,59.8,9,56.2,11.5c-.1,0-.2.2-.3.4l-25.4,58.1-13.1,45.9c-.2.7.4,1.4,1.1,1.3,33.7-5.6,60.3-.5,115.4,14.7,56,15.5,103.4,35.9,191,35.9s184.6-94.8,199.2-108.6c.7-.6.1-1.7-.8-1.6ZM108.6,89.6c1.4-6.4,2.8-14.2,2.8-14.2l-17.1-6.5s-3.3,6.6-6.5,12.7c-5.4,11.1-24.4,15.4-13.3-11.2,5.4-16.7,7.9-29.6,9.2-37.1,1.8-10.1,16.1-12.1,16.9,11.9,0,3.5-1.8,7.2-1.3,8.6.2.6,14.3,5.8,14.3,5.8,0,0,5-11.7,8.1-17,5.8-14.5,18.5-6.3,14.8,2.7-2.5,14-11.4,40.4-13.4,46.8-4.3,12.3-20,14.3-14.6-2.4ZM171.3,109.7c-5.9,9.6-16.4,7.8-12.4-2.6,1.9-6.3,3.8-12,3.8-12l-13.5-1.5c-10.6,20.6-20.1,12-14.6,3.1,5.9-10.4,18.4-33.3,24.3-44.8,4.3-8.6,9.3-10.1,13-9.7,1.6.1,3.8,3.4,5.4,6.5,5.4,20.6-4.3,58.5-6,61ZM217.6,71.7c-8.8-4.4-14.4,13.6-16.9,22.7-1.1,5.4-1.9,15.5,3,19.4,2.9,2.4,6.5,1.9,9.1,2.1,2.1.3,6.2,8.4-5.9,12-2.1-.3-12.8-.3-17.2-10.6-4.9-10.7-1.8-26.4-1.8-26.4,0,0,6.4-32.5,24.9-32.6,12.8-1.9,16.5,9.3,14.7,14.3-.9,2.7-4.7,5.8-10-.9ZM273.7,88c-1.3,5.3-15.1,19-15.1,19,1.9.8,4,6.7,4,6.7,3.1,8.1,4.7,14.4,5.2,19.1-.2,13.7-12.5,9.7-13.5,2.7-.9-7.2-4.7-24.1-4.7-24.1l-4.4.5s-2.7,8.7-5.1,12.2c-10.1,14.9-19.3,9.9-14.7,1.3.6-1.2,5.3-9.7,7.3-14.3,8.1-18.9,4.1-29.4,7.3-39.4h0c2.8-8.2,13.2-1.5,12.2,7.7.3,8.7-2.3,20.2-2.3,20.2,0,0,1.3-2.9,12-12,10.8-9.1,13.3-5.2,11.9.4ZM324.5,143.7c-13.8,2.2-21.8-9-22.5-28.4-.3-13,2.6-21.6,7.2-26.2,7.7-6.3,14.4-4.8,19.4,2.3,2.5,5.1,1.1,10.8-6,5.6-.4-.4-3-1.9-5.6-.3-.6.4-1.8.9-3.1,2.8-4.2,6.3-3,17.7-.6,23.5,3.6,8.6,7.8,11.1,13.5,9,5.6-2.1,5.9-1,6.9-.7,1.3.3,4.5,10.3-9.3,12.5ZM378.7,127.7c-1.1,3.3-4.1,3.6-4.8,4-.6.4-27.4,8.3-28.3,3-1-5.3-1.1-7.7-2.1-16.7-1-9-3.4-21.3-3.5-28.7,0-7.4,7.6-13.1,10.2,3.4,3.3,10.7,2.5,31.3,4.1,33.2,1.6,1.9,13.4-.8,16.6-1.8,3.2-1.1,9.1.3,7.8,3.5ZM409.5,109.5c-1.3,5.1-2.6,11.6-9.3,13.2-1.7.4-16.1,2.5-21.2-13.3-4.9-16.5-6.4-21.3-7-26.6s4.9-8.6,8.1-2.9c2.4,4.4,5.3,23.7,9.2,31.9,2.2,3.3,6.7,3.9,8.8.9,2.5-4.6.7-15.9-.8-25.1-1.1-4.4-2.3-7.7-2.3-10.2,1-8.2,7.6-6.3,10.6,2.2,2.6,9.4,5.2,24.6,3.9,30ZM432.2,108.2c-4.1,1.1-8.4,1.1-8.5-.3-.1-2.8-10.3-35.6-10.3-35.6-.3-2-1.4-4.2,3.9-7.2,8.9-5.4,15.5-7.2,20.7-5.3,3,1.9,5,7,4.2,11.4-.9,3.8-2.5,7-2.5,7,5.3.5,9.1,5.8,10.1,12.6,1,6.9-5.5,13.3-17.5,17.3Z"/>
  <path class="st0" d="M426.9,89.4s3,12.8,2.9,12.2c0-.8,15.7-4,12.3-12.2-3.4-8.2-15.2,0-15.2,0Z"/>
  <path class="st0" d="M167.3,59.7l-12.8,18.7,13.3,2.3s3.7-23.4-.5-21Z"/>
  <path d="M56.3,7.1s1-1.2,3-.9,1.5,2.5.7,4c-.7,1.5-19.3,39.6-32.8,82.6-13.5,43-12.4,88.9-12.4,91.4H0c-.2-4.5,2.6-47.7,17.4-91.4C32.2,49,54.3,8.6,56.3,7.1Z"/>
</svg>
