<?xml version="1.0" encoding="UTF-8"?>
<svg id="Layer_2" data-name="Layer 2" xmlns="http://www.w3.org/2000/svg" viewBox="0 0 205.373 205.373">
  <g id="Layer_1-2" data-name="Layer 1">
    <g>
      <path d="M160.097,149.487c-.16.115-.561.236-.567.399l-.028.884-5.504.132,1.166,1.9c-.549.48-1.204.333-1.888.224-.316.686-1.607.834-2.005.23l-1.569-2.381-93.778-.026c-.731-.499-.961-1.795-.832-2.543-.59-.525-.698-1.044-.651-1.775.166-3.183.005-6.26-.561-9.392-.138-.765.088-1.281.519-1.852.132-.266-.113-.968.274-1.251l1.875-.013,5.432-4.09,1.744-1.641c.656-.617,1.231-.942,1.946-1.504l3.28-2.58c-.32-2.026-.703-4.067.139-6.149-1.488-1.932-3.344-3.681-5.276-5.457l-2-1.838-1.433-.174c-.235-.549-.148-1.094-.253-1.714-2.36-1.232-.808-3.352-2.165-4.217-7.888-.065-15.455-.307-22.664-3.373.004-.421.01-.803-.107-1.061-.085-.187-.438-.304-.753-.359-.482-.084-.707-.516-.522-1.155-4.035-1.429-7.661-3.476-11.133-6.029l-5.773-4.244c-.762-.56-1.37-.742-2.3-.985-.973-.254-1.194-2.141-2.511-2.402l-.483-2.923c-.199-1.203.109-2.559.592-3.625,2.35-.668,4.587-.091,6.93-.141l11.83-.252,7.02-.289c1.357-2.042,2.675-4.521,1.767-6.639-1.059-2.47-3.168-3.943-4.5-6.099.271-.356,1.141-1.144,1.694-.964,2.964.962,5.598,2.27,8.498,3.464,2.118-.495,2.405-1.81,3.7-3.294,1.643-1.882,2.889-3.926,4.17-6.055.371-.34,1.045-.716,1.427-.854.363.102.417.615.302.931-1.045,2.876-1.823,5.775-1.965,8.816-.044.942.313,1.525,1.147,1.837,1.689.63,3.424.969,5.197,1.372l4.281.971c.299.068.961.476.742.839-.284.47-1.081.907-1.628.992l-4.811.742c1.516.231,3.019.099,4.634.041l2.66-.095c.273-.01.342-.708.224-1.061,1.716-.313,3.346-.078,5.137-.039l15.125.328,8.533-.289,16.445-.255c9.643-.149,19.07-.227,28.675.206l9.232.633h5.386s11.824.008,11.824.008c1.806.001,3.536-.48,5.309-.185.525.088,1.26.483,1.916.289.326-.097,1.304-.019,1.38.321l.146,5.603-.457,9.936-.303,10.273-1.929.063c-.066.338-.062.841-.25,1.065-.239.285-.62.277-1.006.266l-5.25-.153c-5.401,1.195-10.525,3.42-15.119,6.467-2.025,1.343-3.924,2.749-5.374,4.668-2.122,2.809-2.398,6.47-1.396,9.791.941,3.117,2.85,5.619,5.241,7.804,1.668,1.524,3.753,2.277,5.918,2.921,1.367.407,2.535,1.594,3.948,1.756l3.612-.319c.306-.027.401.219.365.477-.116.826-1.716.189-2.355.974l1.988-.048c.269-.007.372.187.425.305.079.177.032.484-.214.525l-2.367.393-.515,3.081,2.48.096c.31.012.468.105.506.302.06.317-.118.573-.507.571l-2.61-.013v.291s2.387.098,2.387.098l.391.084c.179.038.284.608.051.671-.963.26-1.843.023-2.931.043l-.262,5.888c.573.363,1.122,1.133.894,1.83ZM44.498,77.622l3.741.12c.494-.582,1.099-.642,1.856-.552.518-1.031,1.332-1.625,2.255-2.205,2.357-1.482,4.908-2.214,7.687-2.774l-6.193-1.535c-3.392-.841-2.482-4.249-1.93-7.588l-3.876,4.804c-.688.853-1.919,1.084-2.879,1.495l-5.874-2.49c3.471,4.429,3.512,6.124.524,10.866.817-.034,1.732.126,2.349-.138.888-.38,1.395-.033,2.34-.002ZM56.242,77.423c.019-1.095-.153-1.854.178-2.548.087-.107.488-.108.62-.087.154.024.214-.628.077-.609-1.924.273-4.776,1.238-5.256,2.97,1.552-.006,2.807.124,4.381.274Z"/>
      <path d="M107.51,157.648c-1.719.658-2.518-1.623-3.548-.565-.566.581-1.375.856-2.083.474l.839-2.625-1.417-.639c-.21-.095-.291-.268-.265-.436s.128-.269.382-.31l2.394-.391.676-1.604c.133-.316,1.047-.367,1.19-.037l.726,1.676c.981.405,2.475.055,2.633.477.093.247-.004.469-.26.609l-1.727.946c.301.657.886,1.747.461,2.425ZM106.219,156.589c.072-.808-.328-1.09-.431-1.628l1.333-.985c-.847-.006-1.512.071-1.979-.613-.576.488-1.271.493-2.207.615.733.632,1.012,1.249.587,2.203,1.1-.335,1.906-.178,2.697.408Z"/>
      <path d="M112.115,154.942c-.336.812.142,1.609.237,2.388.05.406-1.114.506-1.162.182l-.439-2.977-.189-2.353c-.02-.25.93-.371.981-.098l.383,2.045c.121.204.903.06.958-.172.169-.71-.136-1.408-.374-2.018.425-.165.845-.14,1.093-.027.262.119.284.604.334.911l.131.789c.055.334.553.24.701.383.227.243-.266.597-.605.476l.092,2.728c-.018.225-.821.272-.943.076-.298-.772-.166-1.642-.277-2.492-.199-.007-.648.013-.921.159Z"/>
      <path d="M144.162,156.004c-.894.848-2.168,1.113-3.435.882l-.837-4.799c.883-.572,2.106-.707,3.07-.146.83.482.793,1.722.141,2.358.506.13.922.251,1.11.502.225.3.25.919-.049,1.203ZM142.407,153.348c.214-.445-.145-.731-.317-.912-.175-.184-.843-.274-.897-.047-.151.64.119,1.283.198,1.991.295-.304.784-.551,1.016-1.033ZM143.175,155.384c-.35-.65-1.091-.533-1.603-.794-.127.498-.032,1.056.094,1.709.469-.04,1.502-.44,1.509-.915Z"/>
      <path d="M92.218,157.352c-1.507,1.058-1.329-1.546-3.501-2.675-.384.682.069,1.517.002,2.226-.058.255-1.009.258-1.034,0l-.434-4.579c1.488-.869,3.592.319,3.591,1.137,0,.384-.219.68-.677.976.823.744,1.637,1.827,2.053,2.913ZM89.722,153.533c-.463-.504-.699-.585-1.142-.806-.101.508-.097.739-.009,1.339.473-.081.791-.187,1.151-.533Z"/>
      <path d="M86.067,152.663c1.083,1.474.592,4.655-.868,5.005-.575.138-1.433.215-1.748-.361-.697-1.275-.675-2.902-.144-4.268.408-1.048,2.094-1.283,2.76-.377ZM84.607,157.111c1.188-1.166,1.064-2.685.578-3.917-.962-.984-1.685,2.064-.578,3.917Z"/>
      <path d="M126.484,154.447l1.931,2.411c.251.313-.968.437-1.284.062l-1.176-1.399-.488,1.248c-.104.267-.761.181-1.04.055l-.776-4.922c.246-.112.835-.15,1.043.033l.449,2.269c.489-.372.673-.876.967-1.463.141-.282,1.108-.303,1.135-.003.029.606-.643,1.083-.762,1.709Z"/>
      <path d="M119.3,156.945c.054.203-.64.288-.868.172-.424-.217-.291-1.29-1.07-1.403-.498-.073-.999-.012-.988.616.007.371-.012.838-.244.995-.227.154-1.004.068-.957-.193l.838-4.624c.095-.527.082-.793.601-.872.695-.106.622.182.828.77.294.839.699,1.696,1.171,2.423.222.341.438.389.366.91l.322,1.208ZM117.305,154.972c-.084-.529-.239-.682-.341-.84-.32.269-.364.642-.29.913.044.161.656.087.631-.073Z"/>
      <path d="M139.236,152.665c.262,1.192.118,2.311-.065,3.354-.133.76-.518,1.151-1.147,1.183-.701.036-1.116-.245-1.403-.945-.641-1.561-.596-4.301-.586-4.313.162-.19.565-.131.751-.106.71.097.026,2.611,1.083,4.429.564-1.187.318-2.286.36-3.49.01-.285.953-.367,1.009-.11Z"/>
      <path d="M99.919,154.635l-2.084.177c-.059.555-.029,1.12.131,1.678,1.024-.248,2.001-.428,2.808.181-.589.512-1.215.179-1.708.298-.823.199-1.517.345-2.25.026l-.391-4.456c.857-.38,1.819-.466,2.764-.329.267.039.251.721.068.719l-1.618-.021c-.044.495.006.84.192,1.251,1.433-.274,2.396-.303,2.088.477Z"/>
      <path d="M94.583,155.623c-.288-.057-1.167-.138-.817-.583.398-.409,1.88-.191,2.113.362.439,1.041-.45,1.815-1.256,2.019-.977.247-1.86-.208-2.227-1.245-.538-1.518-.461-3.699.604-3.862.595-.091.812.078.958.549.16.514-.362.56-.616.79-.439.904-.041,2.262.61,2.967.278.301.516-.087.667-.199.179-.133.388-.714-.037-.798Z"/>
      <path d="M121.592,152.907c-.658,1.309-.65,3.277.108,3.762.614.393,1.842-.735,2.222.003-.335.813-1.374.728-2.026.748-.927.029-1.564-.414-1.775-1.328-.311-1.346-.105-2.975.839-4.059.332-.382,1.334-.305,1.65-.041.289.241.317.982.101,1.132-.351.133-.756-.028-1.118-.216Z"/>
      <path d="M82.322,154.161c-.696.6-1.545.327-2.302.612l-.022,2.375c-.189.23-.975.223-1.133-.036.007-1.257.179-2.659-.091-3.884l-.318-.382c-.05-.06.118-.348.274-.368l3.368-.43c.22-.028.443.287.422.421-.094.594-1.557-.04-2.462.545-.209.135-.14.971.098.98.678.025,1.434-.346,2.166.167Z"/>
      <path d="M130.362,152.684c-.826.933-.781,2.534-.039,3.433.399.484,1.13.271,1.721.405-.447.843-1.529.662-2.183.391-1.483-.615-1.576-3.582-.421-4.845.452-.494,1.464-.433,1.902-.021.138.347.066.637-.036.637h-.945Z"/>
      <path d="M133.828,156.719c1.489.388,2.628-.272,2.4.674-1.079.132-2.275.19-3.396-.11-.54-1.781-.643-3.513-.735-5.269.264-.155.99-.118,1.024.104l.708,4.6Z"/>
    </g>
  </g>
</svg>