<?xml version="1.0" standalone="no"?>
<svg xmlns="http://www.w3.org/2000/svg" width="256" height="256"><defs><clipPath id="clip-path-dot-color"><rect x="16" y="90" width="7" height="7" transform="rotate(0,19.5,93.5)"/><rect x="16" y="97" width="7" height="7" transform="rotate(0,19.5,100.5)"/><rect x="16" y="104" width="7" height="7" transform="rotate(0,19.5,107.5)"/><rect x="16" y="117" width="7" height="7" transform="rotate(0,19.5,120.5)"/><rect x="16" y="124" width="7" height="7" transform="rotate(0,19.5,127.5)"/><rect x="16" y="138" width="7" height="7" transform="rotate(0,19.5,141.5)"/><rect x="16" y="172" width="7" height="7" transform="rotate(0,19.5,175.5)"/><rect x="22" y="77" width="7" height="7" transform="rotate(0,25.5,80.5)"/><rect x="22" y="90" width="7" height="7" transform="rotate(0,25.5,93.5)"/><rect x="22" y="104" width="7" height="7" transform="rotate(0,25.5,107.5)"/><rect x="22" y="124" width="7" height="7" transform="rotate(0,25.5,127.5)"/><rect x="22" y="138" width="7" height="7" transform="rotate(0,25.5,141.5)"/><rect x="22" y="144" width="7" height="7" transform="rotate(0,25.5,147.5)"/><rect x="22" y="151" width="7" height="7" transform="rotate(0,25.5,154.5)"/><rect x="29" y="70" width="7" height="7" transform="rotate(0,32.5,73.5)"/><rect x="29" y="77" width="7" height="7" transform="rotate(0,32.5,80.5)"/><rect x="29" y="90" width="7" height="7" transform="rotate(0,32.5,93.5)"/><rect x="29" y="117" width="7" height="7" transform="rotate(0,32.5,120.5)"/><rect x="29" y="131" width="7" height="7" transform="rotate(0,32.5,134.5)"/><rect x="29" y="138" width="7" height="7" transform="rotate(0,32.5,141.5)"/><rect x="29" y="144" width="7" height="7" transform="rotate(0,32.5,147.5)"/><rect x="29" y="158" width="7" height="7" transform="rotate(0,32.5,161.5)"/><rect x="29" y="172" width="7" height="7" transform="rotate(0,32.5,175.5)"/><rect x="29" y="178" width="7" height="7" transform="rotate(0,32.5,181.5)"/><rect x="36" y="90" width="7" height="7" transform="rotate(0,39.5,93.5)"/><rect x="36" y="97" width="7" height="7" transform="rotate(0,39.5,100.5)"/><rect x="36" y="104" width="7" height="7" transform="rotate(0,39.5,107.5)"/><rect x="36" y="111" width="7" height="7" transform="rotate(0,39.5,114.5)"/><rect x="36" y="131" width="7" height="7" transform="rotate(0,39.5,134.5)"/><rect x="36" y="158" width="7" height="7" transform="rotate(0,39.5,161.5)"/><rect x="36" y="165" width="7" height="7" transform="rotate(0,39.5,168.5)"/><rect x="36" y="172" width="7" height="7" transform="rotate(0,39.5,175.5)"/><rect x="43" y="70" width="7" height="7" transform="rotate(0,46.5,73.5)"/><rect x="43" y="77" width="7" height="7" transform="rotate(0,46.5,80.5)"/><rect x="43" y="83" width="7" height="7" transform="rotate(0,46.5,86.5)"/><rect x="43" y="90" width="7" height="7" transform="rotate(0,46.5,93.5)"/><rect x="43" y="97" width="7" height="7" transform="rotate(0,46.5,100.5)"/><rect x="43" y="131" width="7" height="7" transform="rotate(0,46.5,134.5)"/><rect x="43" y="144" width="7" height="7" transform="rotate(0,46.5,147.5)"/><rect x="43" y="165" width="7" height="7" transform="rotate(0,46.5,168.5)"/><rect x="49" y="70" width="7" height="7" transform="rotate(0,52.5,73.5)"/><rect x="49" y="77" width="7" height="7" transform="rotate(0,52.5,80.5)"/><rect x="49" y="111" width="7" height="7" transform="rotate(0,52.5,114.5)"/><rect x="49" y="151" width="7" height="7" transform="rotate(0,52.5,154.5)"/><rect x="49" y="158" width="7" height="7" transform="rotate(0,52.5,161.5)"/><rect x="49" y="172" width="7" height="7" transform="rotate(0,52.5,175.5)"/><rect x="49" y="178" width="7" height="7" transform="rotate(0,52.5,181.5)"/><rect x="56" y="70" width="7" height="7" transform="rotate(0,59.5,73.5)"/><rect x="56" y="83" width="7" height="7" transform="rotate(0,59.5,86.5)"/><rect x="56" y="97" width="7" height="7" transform="rotate(0,59.5,100.5)"/><rect x="56" y="111" width="7" height="7" transform="rotate(0,59.5,114.5)"/><rect x="56" y="124" width="7" height="7" transform="rotate(0,59.5,127.5)"/><rect x="56" y="138" width="7" height="7" transform="rotate(0,59.5,141.5)"/><rect x="56" y="151" width="7" height="7" transform="rotate(0,59.5,154.5)"/><rect x="56" y="165" width="7" height="7" transform="rotate(0,59.5,168.5)"/><rect x="56" y="178" width="7" height="7" transform="rotate(0,59.5,181.5)"/><rect x="63" y="83" width="7" height="7" transform="rotate(0,66.5,86.5)"/><rect x="63" y="90" width="7" height="7" transform="rotate(0,66.5,93.5)"/><rect x="63" y="111" width="7" height="7" transform="rotate(0,66.5,114.5)"/><rect x="63" y="124" width="7" height="7" transform="rotate(0,66.5,127.5)"/><rect x="63" y="131" width="7" height="7" transform="rotate(0,66.5,134.5)"/><rect x="63" y="144" width="7" height="7" transform="rotate(0,66.5,147.5)"/><rect x="63" y="151" width="7" height="7" transform="rotate(0,66.5,154.5)"/><rect x="63" y="158" width="7" height="7" transform="rotate(0,66.5,161.5)"/><rect x="63" y="165" width="7" height="7" transform="rotate(0,66.5,168.5)"/><rect x="63" y="178" width="7" height="7" transform="rotate(0,66.5,181.5)"/><rect x="70" y="22" width="7" height="7" transform="rotate(0,73.5,25.5)"/><rect x="70" y="43" width="7" height="7" transform="rotate(0,73.5,46.5)"/><rect x="70" y="56" width="7" height="7" transform="rotate(0,73.5,59.5)"/><rect x="70" y="70" width="7" height="7" transform="rotate(0,73.5,73.5)"/><rect x="70" y="77" width="7" height="7" transform="rotate(0,73.5,80.5)"/><rect x="70" y="90" width="7" height="7" transform="rotate(0,73.5,93.5)"/><rect x="70" y="97" width="7" height="7" transform="rotate(0,73.5,100.5)"/><rect x="70" y="104" width="7" height="7" transform="rotate(0,73.5,107.5)"/><rect x="70" y="111" width="7" height="7" transform="rotate(0,73.5,114.5)"/><rect x="70" y="124" width="7" height="7" transform="rotate(0,73.5,127.5)"/><rect x="70" y="131" width="7" height="7" transform="rotate(0,73.5,134.5)"/><rect x="70" y="151" width="7" height="7" transform="rotate(0,73.5,154.5)"/><rect x="70" y="158" width="7" height="7" transform="rotate(0,73.5,161.5)"/><rect x="70" y="172" width="7" height="7" transform="rotate(0,73.5,175.5)"/><rect x="70" y="185" width="7" height="7" transform="rotate(0,73.5,188.5)"/><rect x="70" y="199" width="7" height="7" transform="rotate(0,73.5,202.5)"/><rect x="70" y="206" width="7" height="7" transform="rotate(0,73.5,209.5)"/><rect x="70" y="219" width="7" height="7" transform="rotate(0,73.5,222.5)"/><rect x="77" y="16" width="7" height="7" transform="rotate(0,80.5,19.5)"/><rect x="77" y="29" width="7" height="7" transform="rotate(0,80.5,32.5)"/><rect x="77" y="36" width="7" height="7" transform="rotate(0,80.5,39.5)"/><rect x="77" y="49" width="7" height="7" transform="rotate(0,80.5,52.5)"/><rect x="77" y="63" width="7" height="7" transform="rotate(0,80.5,66.5)"/><rect x="77" y="83" width="7" height="7" transform="rotate(0,80.5,86.5)"/><rect x="77" y="90" width="7" height="7" transform="rotate(0,80.5,93.5)"/><rect x="77" y="111" width="7" height="7" transform="rotate(0,80.5,114.5)"/><rect x="77" y="131" width="7" height="7" transform="rotate(0,80.5,134.5)"/><rect x="77" y="138" width="7" height="7" transform="rotate(0,80.5,141.5)"/><rect x="77" y="144" width="7" height="7" transform="rotate(0,80.5,147.5)"/><rect x="77" y="158" width="7" height="7" transform="rotate(0,80.5,161.5)"/><rect x="77" y="172" width="7" height="7" transform="rotate(0,80.5,175.5)"/><rect x="77" y="185" width="7" height="7" transform="rotate(0,80.5,188.5)"/><rect x="77" y="212" width="7" height="7" transform="rotate(0,80.5,215.5)"/><rect x="77" y="219" width="7" height="7" transform="rotate(0,80.5,222.5)"/><rect x="77" y="226" width="7" height="7" transform="rotate(0,80.5,229.5)"/><rect x="83" y="22" width="7" height="7" transform="rotate(0,86.5,25.5)"/><rect x="83" y="29" width="7" height="7" transform="rotate(0,86.5,32.5)"/><rect x="83" y="36" width="7" height="7" transform="rotate(0,86.5,39.5)"/><rect x="83" y="49" width="7" height="7" transform="rotate(0,86.5,52.5)"/><rect x="83" y="56" width="7" height="7" transform="rotate(0,86.5,59.5)"/><rect x="83" y="70" width="7" height="7" transform="rotate(0,86.5,73.5)"/><rect x="83" y="83" width="7" height="7" transform="rotate(0,86.5,86.5)"/><rect x="83" y="90" width="7" height="7" transform="rotate(0,86.5,93.5)"/><rect x="83" y="111" width="7" height="7" transform="rotate(0,86.5,114.5)"/><rect x="83" y="117" width="7" height="7" transform="rotate(0,86.5,120.5)"/><rect x="83" y="138" width="7" height="7" transform="rotate(0,86.5,141.5)"/><rect x="83" y="172" width="7" height="7" transform="rotate(0,86.5,175.5)"/><rect x="83" y="192" width="7" height="7" transform="rotate(0,86.5,195.5)"/><rect x="83" y="212" width="7" height="7" transform="rotate(0,86.5,215.5)"/><rect x="83" y="226" width="7" height="7" transform="rotate(0,86.5,229.5)"/><rect x="90" y="16" width="7" height="7" transform="rotate(0,93.5,19.5)"/><rect x="90" y="22" width="7" height="7" transform="rotate(0,93.5,25.5)"/><rect x="90" y="29" width="7" height="7" transform="rotate(0,93.5,32.5)"/><rect x="90" y="36" width="7" height="7" transform="rotate(0,93.5,39.5)"/><rect x="90" y="70" width="7" height="7" transform="rotate(0,93.5,73.5)"/><rect x="90" y="77" width="7" height="7" transform="rotate(0,93.5,80.5)"/><rect x="90" y="83" width="7" height="7" transform="rotate(0,93.5,86.5)"/><rect x="90" y="90" width="7" height="7" transform="rotate(0,93.5,93.5)"/><rect x="90" y="117" width="7" height="7" transform="rotate(0,93.5,120.5)"/><rect x="90" y="144" width="7" height="7" transform="rotate(0,93.5,147.5)"/><rect x="90" y="165" width="7" height="7" transform="rotate(0,93.5,168.5)"/><rect x="90" y="172" width="7" height="7" transform="rotate(0,93.5,175.5)"/><rect x="90" y="185" width="7" height="7" transform="rotate(0,93.5,188.5)"/><rect x="90" y="233" width="7" height="7" transform="rotate(0,93.5,236.5)"/><rect x="97" y="22" width="7" height="7" transform="rotate(0,100.5,25.5)"/><rect x="97" y="29" width="7" height="7" transform="rotate(0,100.5,32.5)"/><rect x="97" y="36" width="7" height="7" transform="rotate(0,100.5,39.5)"/><rect x="97" y="43" width="7" height="7" transform="rotate(0,100.5,46.5)"/><rect x="97" y="49" width="7" height="7" transform="rotate(0,100.5,52.5)"/><rect x="97" y="56" width="7" height="7" transform="rotate(0,100.5,59.5)"/><rect x="97" y="63" width="7" height="7" transform="rotate(0,100.5,66.5)"/><rect x="97" y="70" width="7" height="7" transform="rotate(0,100.5,73.5)"/><rect x="97" y="90" width="7" height="7" transform="rotate(0,100.5,93.5)"/><rect x="97" y="97" width="7" height="7" transform="rotate(0,100.5,100.5)"/><rect x="97" y="104" width="7" height="7" transform="rotate(0,100.5,107.5)"/><rect x="97" y="117" width="7" height="7" transform="rotate(0,100.5,120.5)"/><rect x="97" y="124" width="7" height="7" transform="rotate(0,100.5,127.5)"/><rect x="97" y="165" width="7" height="7" transform="rotate(0,100.5,168.5)"/><rect x="97" y="172" width="7" height="7" transform="rotate(0,100.5,175.5)"/><rect x="97" y="178" width="7" height="7" transform="rotate(0,100.5,181.5)"/><rect x="97" y="192" width="7" height="7" transform="rotate(0,100.5,195.5)"/><rect x="97" y="206" width="7" height="7" transform="rotate(0,100.5,209.5)"/><rect x="97" y="212" width="7" height="7" transform="rotate(0,100.5,215.5)"/><rect x="97" y="226" width="7" height="7" transform="rotate(0,100.5,229.5)"/><rect x="104" y="22" width="7" height="7" transform="rotate(0,107.5,25.5)"/><rect x="104" y="29" width="7" height="7" transform="rotate(0,107.5,32.5)"/><rect x="104" y="36" width="7" height="7" transform="rotate(0,107.5,39.5)"/><rect x="104" y="43" width="7" height="7" transform="rotate(0,107.5,46.5)"/><rect x="104" y="63" width="7" height="7" transform="rotate(0,107.5,66.5)"/><rect x="104" y="70" width="7" height="7" transform="rotate(0,107.5,73.5)"/><rect x="104" y="83" width="7" height="7" transform="rotate(0,107.5,86.5)"/><rect x="104" y="104" width="7" height="7" transform="rotate(0,107.5,107.5)"/><rect x="104" y="117" width="7" height="7" transform="rotate(0,107.5,120.5)"/><rect x="104" y="131" width="7" height="7" transform="rotate(0,107.5,134.5)"/><rect x="104" y="138" width="7" height="7" transform="rotate(0,107.5,141.5)"/><rect x="104" y="144" width="7" height="7" transform="rotate(0,107.5,147.5)"/><rect x="104" y="151" width="7" height="7" transform="rotate(0,107.5,154.5)"/><rect x="104" y="158" width="7" height="7" transform="rotate(0,107.5,161.5)"/><rect x="104" y="178" width="7" height="7" transform="rotate(0,107.5,181.5)"/><rect x="104" y="199" width="7" height="7" transform="rotate(0,107.5,202.5)"/><rect x="104" y="219" width="7" height="7" transform="rotate(0,107.5,222.5)"/><rect x="111" y="16" width="7" height="7" transform="rotate(0,114.5,19.5)"/><rect x="111" y="43" width="7" height="7" transform="rotate(0,114.5,46.5)"/><rect x="111" y="56" width="7" height="7" transform="rotate(0,114.5,59.5)"/><rect x="111" y="77" width="7" height="7" transform="rotate(0,114.5,80.5)"/><rect x="111" y="104" width="7" height="7" transform="rotate(0,114.5,107.5)"/><rect x="111" y="111" width="7" height="7" transform="rotate(0,114.5,114.5)"/><rect x="111" y="124" width="7" height="7" transform="rotate(0,114.5,127.5)"/><rect x="111" y="151" width="7" height="7" transform="rotate(0,114.5,154.5)"/><rect x="111" y="172" width="7" height="7" transform="rotate(0,114.5,175.5)"/><rect x="111" y="178" width="7" height="7" transform="rotate(0,114.5,181.5)"/><rect x="111" y="185" width="7" height="7" transform="rotate(0,114.5,188.5)"/><rect x="111" y="192" width="7" height="7" transform="rotate(0,114.5,195.5)"/><rect x="111" y="206" width="7" height="7" transform="rotate(0,114.5,209.5)"/><rect x="111" y="226" width="7" height="7" transform="rotate(0,114.5,229.5)"/><rect x="117" y="70" width="7" height="7" transform="rotate(0,120.5,73.5)"/><rect x="117" y="77" width="7" height="7" transform="rotate(0,120.5,80.5)"/><rect x="117" y="83" width="7" height="7" transform="rotate(0,120.5,86.5)"/><rect x="117" y="90" width="7" height="7" transform="rotate(0,120.5,93.5)"/><rect x="117" y="104" width="7" height="7" transform="rotate(0,120.5,107.5)"/><rect x="117" y="158" width="7" height="7" transform="rotate(0,120.5,161.5)"/><rect x="117" y="165" width="7" height="7" transform="rotate(0,120.5,168.5)"/><rect x="117" y="178" width="7" height="7" transform="rotate(0,120.5,181.5)"/><rect x="117" y="185" width="7" height="7" transform="rotate(0,120.5,188.5)"/><rect x="117" y="192" width="7" height="7" transform="rotate(0,120.5,195.5)"/><rect x="117" y="199" width="7" height="7" transform="rotate(0,120.5,202.5)"/><rect x="117" y="206" width="7" height="7" transform="rotate(0,120.5,209.5)"/><rect x="124" y="22" width="7" height="7" transform="rotate(0,127.5,25.5)"/><rect x="124" y="29" width="7" height="7" transform="rotate(0,127.5,32.5)"/><rect x="124" y="49" width="7" height="7" transform="rotate(0,127.5,52.5)"/><rect x="124" y="56" width="7" height="7" transform="rotate(0,127.5,59.5)"/><rect x="124" y="63" width="7" height="7" transform="rotate(0,127.5,66.5)"/><rect x="124" y="77" width="7" height="7" transform="rotate(0,127.5,80.5)"/><rect x="124" y="83" width="7" height="7" transform="rotate(0,127.5,86.5)"/><rect x="124" y="97" width="7" height="7" transform="rotate(0,127.5,100.5)"/><rect x="124" y="104" width="7" height="7" transform="rotate(0,127.5,107.5)"/><rect x="124" y="117" width="7" height="7" transform="rotate(0,127.5,120.5)"/><rect x="124" y="124" width="7" height="7" transform="rotate(0,127.5,127.5)"/><rect x="124" y="131" width="7" height="7" transform="rotate(0,127.5,134.5)"/><rect x="124" y="138" width="7" height="7" transform="rotate(0,127.5,141.5)"/><rect x="124" y="144" width="7" height="7" transform="rotate(0,127.5,147.5)"/><rect x="124" y="151" width="7" height="7" transform="rotate(0,127.5,154.5)"/><rect x="124" y="158" width="7" height="7" transform="rotate(0,127.5,161.5)"/><rect x="124" y="165" width="7" height="7" transform="rotate(0,127.5,168.5)"/><rect x="124" y="178" width="7" height="7" transform="rotate(0,127.5,181.5)"/><rect x="124" y="192" width="7" height="7" transform="rotate(0,127.5,195.5)"/><rect x="124" y="206" width="7" height="7" transform="rotate(0,127.5,209.5)"/><rect x="124" y="212" width="7" height="7" transform="rotate(0,127.5,215.5)"/><rect x="124" y="226" width="7" height="7" transform="rotate(0,127.5,229.5)"/><rect x="131" y="29" width="7" height="7" transform="rotate(0,134.5,32.5)"/><rect x="131" y="36" width="7" height="7" transform="rotate(0,134.5,39.5)"/><rect x="131" y="43" width="7" height="7" transform="rotate(0,134.5,46.5)"/><rect x="131" y="49" width="7" height="7" transform="rotate(0,134.5,52.5)"/><rect x="131" y="77" width="7" height="7" transform="rotate(0,134.5,80.5)"/><rect x="131" y="83" width="7" height="7" transform="rotate(0,134.5,86.5)"/><rect x="131" y="90" width="7" height="7" transform="rotate(0,134.5,93.5)"/><rect x="131" y="97" width="7" height="7" transform="rotate(0,134.5,100.5)"/><rect x="131" y="104" width="7" height="7" transform="rotate(0,134.5,107.5)"/><rect x="131" y="111" width="7" height="7" transform="rotate(0,134.5,114.5)"/><rect x="131" y="117" width="7" height="7" transform="rotate(0,134.5,120.5)"/><rect x="131" y="138" width="7" height="7" transform="rotate(0,134.5,141.5)"/><rect x="131" y="144" width="7" height="7" transform="rotate(0,134.5,147.5)"/><rect x="131" y="172" width="7" height="7" transform="rotate(0,134.5,175.5)"/><rect x="131" y="185" width="7" height="7" transform="rotate(0,134.5,188.5)"/><rect x="131" y="212" width="7" height="7" transform="rotate(0,134.5,215.5)"/><rect x="131" y="219" width="7" height="7" transform="rotate(0,134.5,222.5)"/><rect x="138" y="16" width="7" height="7" transform="rotate(0,141.5,19.5)"/><rect x="138" y="29" width="7" height="7" transform="rotate(0,141.5,32.5)"/><rect x="138" y="49" width="7" height="7" transform="rotate(0,141.5,52.5)"/><rect x="138" y="56" width="7" height="7" transform="rotate(0,141.5,59.5)"/><rect x="138" y="83" width="7" height="7" transform="rotate(0,141.5,86.5)"/><rect x="138" y="97" width="7" height="7" transform="rotate(0,141.5,100.5)"/><rect x="138" y="104" width="7" height="7" transform="rotate(0,141.5,107.5)"/><rect x="138" y="124" width="7" height="7" transform="rotate(0,141.5,127.5)"/><rect x="138" y="151" width="7" height="7" transform="rotate(0,141.5,154.5)"/><rect x="138" y="158" width="7" height="7" transform="rotate(0,141.5,161.5)"/><rect x="138" y="165" width="7" height="7" transform="rotate(0,141.5,168.5)"/><rect x="138" y="172" width="7" height="7" transform="rotate(0,141.5,175.5)"/><rect x="138" y="199" width="7" height="7" transform="rotate(0,141.5,202.5)"/><rect x="138" y="212" width="7" height="7" transform="rotate(0,141.5,215.5)"/><rect x="138" y="226" width="7" height="7" transform="rotate(0,141.5,229.5)"/><rect x="144" y="43" width="7" height="7" transform="rotate(0,147.5,46.5)"/><rect x="144" y="63" width="7" height="7" transform="rotate(0,147.5,66.5)"/><rect x="144" y="70" width="7" height="7" transform="rotate(0,147.5,73.5)"/><rect x="144" y="77" width="7" height="7" transform="rotate(0,147.5,80.5)"/><rect x="144" y="83" width="7" height="7" transform="rotate(0,147.5,86.5)"/><rect x="144" y="90" width="7" height="7" transform="rotate(0,147.5,93.5)"/><rect x="144" y="97" width="7" height="7" transform="rotate(0,147.5,100.5)"/><rect x="144" y="104" width="7" height="7" transform="rotate(0,147.5,107.5)"/><rect x="144" y="117" width="7" height="7" transform="rotate(0,147.5,120.5)"/><rect x="144" y="124" width="7" height="7" transform="rotate(0,147.5,127.5)"/><rect x="144" y="144" width="7" height="7" transform="rotate(0,147.5,147.5)"/><rect x="144" y="151" width="7" height="7" transform="rotate(0,147.5,154.5)"/><rect x="144" y="158" width="7" height="7" transform="rotate(0,147.5,161.5)"/><rect x="144" y="172" width="7" height="7" transform="rotate(0,147.5,175.5)"/><rect x="144" y="178" width="7" height="7" transform="rotate(0,147.5,181.5)"/><rect x="144" y="192" width="7" height="7" transform="rotate(0,147.5,195.5)"/><rect x="144" y="199" width="7" height="7" transform="rotate(0,147.5,202.5)"/><rect x="151" y="56" width="7" height="7" transform="rotate(0,154.5,59.5)"/><rect x="151" y="63" width="7" height="7" transform="rotate(0,154.5,66.5)"/><rect x="151" y="70" width="7" height="7" transform="rotate(0,154.5,73.5)"/><rect x="151" y="77" width="7" height="7" transform="rotate(0,154.5,80.5)"/><rect x="151" y="90" width="7" height="7" transform="rotate(0,154.5,93.5)"/><rect x="151" y="97" width="7" height="7" transform="rotate(0,154.5,100.5)"/><rect x="151" y="111" width="7" height="7" transform="rotate(0,154.5,114.5)"/><rect x="151" y="124" width="7" height="7" transform="rotate(0,154.5,127.5)"/><rect x="151" y="131" width="7" height="7" transform="rotate(0,154.5,134.5)"/><rect x="151" y="151" width="7" height="7" transform="rotate(0,154.5,154.5)"/><rect x="151" y="178" width="7" height="7" transform="rotate(0,154.5,181.5)"/><rect x="151" y="192" width="7" height="7" transform="rotate(0,154.5,195.5)"/><rect x="151" y="206" width="7" height="7" transform="rotate(0,154.5,209.5)"/><rect x="151" y="212" width="7" height="7" transform="rotate(0,154.5,215.5)"/><rect x="151" y="233" width="7" height="7" transform="rotate(0,154.5,236.5)"/><rect x="158" y="16" width="7" height="7" transform="rotate(0,161.5,19.5)"/><rect x="158" y="29" width="7" height="7" transform="rotate(0,161.5,32.5)"/><rect x="158" y="36" width="7" height="7" transform="rotate(0,161.5,39.5)"/><rect x="158" y="49" width="7" height="7" transform="rotate(0,161.5,52.5)"/><rect x="158" y="63" width="7" height="7" transform="rotate(0,161.5,66.5)"/><rect x="158" y="70" width="7" height="7" transform="rotate(0,161.5,73.5)"/><rect x="158" y="97" width="7" height="7" transform="rotate(0,161.5,100.5)"/><rect x="158" y="117" width="7" height="7" transform="rotate(0,161.5,120.5)"/><rect x="158" y="144" width="7" height="7" transform="rotate(0,161.5,147.5)"/><rect x="158" y="165" width="7" height="7" transform="rotate(0,161.5,168.5)"/><rect x="158" y="172" width="7" height="7" transform="rotate(0,161.5,175.5)"/><rect x="158" y="199" width="7" height="7" transform="rotate(0,161.5,202.5)"/><rect x="158" y="219" width="7" height="7" transform="rotate(0,161.5,222.5)"/><rect x="158" y="226" width="7" height="7" transform="rotate(0,161.5,229.5)"/><rect x="165" y="36" width="7" height="7" transform="rotate(0,168.5,39.5)"/><rect x="165" y="43" width="7" height="7" transform="rotate(0,168.5,46.5)"/><rect x="165" y="49" width="7" height="7" transform="rotate(0,168.5,52.5)"/><rect x="165" y="56" width="7" height="7" transform="rotate(0,168.5,59.5)"/><rect x="165" y="97" width="7" height="7" transform="rotate(0,168.5,100.5)"/><rect x="165" y="104" width="7" height="7" transform="rotate(0,168.5,107.5)"/><rect x="165" y="111" width="7" height="7" transform="rotate(0,168.5,114.5)"/><rect x="165" y="117" width="7" height="7" transform="rotate(0,168.5,120.5)"/><rect x="165" y="124" width="7" height="7" transform="rotate(0,168.5,127.5)"/><rect x="165" y="131" width="7" height="7" transform="rotate(0,168.5,134.5)"/><rect x="165" y="144" width="7" height="7" transform="rotate(0,168.5,147.5)"/><rect x="165" y="165" width="7" height="7" transform="rotate(0,168.5,168.5)"/><rect x="165" y="172" width="7" height="7" transform="rotate(0,168.5,175.5)"/><rect x="165" y="178" width="7" height="7" transform="rotate(0,168.5,181.5)"/><rect x="165" y="185" width="7" height="7" transform="rotate(0,168.5,188.5)"/><rect x="165" y="199" width="7" height="7" transform="rotate(0,168.5,202.5)"/><rect x="165" y="206" width="7" height="7" transform="rotate(0,168.5,209.5)"/><rect x="165" y="212" width="7" height="7" transform="rotate(0,168.5,215.5)"/><rect x="165" y="219" width="7" height="7" transform="rotate(0,168.5,222.5)"/><rect x="165" y="226" width="7" height="7" transform="rotate(0,168.5,229.5)"/><rect x="172" y="43" width="7" height="7" transform="rotate(0,175.5,46.5)"/><rect x="172" y="70" width="7" height="7" transform="rotate(0,175.5,73.5)"/><rect x="172" y="77" width="7" height="7" transform="rotate(0,175.5,80.5)"/><rect x="172" y="111" width="7" height="7" transform="rotate(0,175.5,114.5)"/><rect x="172" y="131" width="7" height="7" transform="rotate(0,175.5,134.5)"/><rect x="172" y="144" width="7" height="7" transform="rotate(0,175.5,147.5)"/><rect x="172" y="151" width="7" height="7" transform="rotate(0,175.5,154.5)"/><rect x="172" y="158" width="7" height="7" transform="rotate(0,175.5,161.5)"/><rect x="172" y="172" width="7" height="7" transform="rotate(0,175.5,175.5)"/><rect x="172" y="185" width="7" height="7" transform="rotate(0,175.5,188.5)"/><rect x="172" y="192" width="7" height="7" transform="rotate(0,175.5,195.5)"/><rect x="172" y="199" width="7" height="7" transform="rotate(0,175.5,202.5)"/><rect x="172" y="212" width="7" height="7" transform="rotate(0,175.5,215.5)"/><rect x="172" y="226" width="7" height="7" transform="rotate(0,175.5,229.5)"/><rect x="172" y="233" width="7" height="7" transform="rotate(0,175.5,236.5)"/><rect x="178" y="16" width="7" height="7" transform="rotate(0,181.5,19.5)"/><rect x="178" y="22" width="7" height="7" transform="rotate(0,181.5,25.5)"/><rect x="178" y="29" width="7" height="7" transform="rotate(0,181.5,32.5)"/><rect x="178" y="43" width="7" height="7" transform="rotate(0,181.5,46.5)"/><rect x="178" y="56" width="7" height="7" transform="rotate(0,181.5,59.5)"/><rect x="178" y="63" width="7" height="7" transform="rotate(0,181.5,66.5)"/><rect x="178" y="77" width="7" height="7" transform="rotate(0,181.5,80.5)"/><rect x="178" y="97" width="7" height="7" transform="rotate(0,181.5,100.5)"/><rect x="178" y="104" width="7" height="7" transform="rotate(0,181.5,107.5)"/><rect x="178" y="117" width="7" height="7" transform="rotate(0,181.5,120.5)"/><rect x="178" y="138" width="7" height="7" transform="rotate(0,181.5,141.5)"/><rect x="178" y="151" width="7" height="7" transform="rotate(0,181.5,154.5)"/><rect x="178" y="158" width="7" height="7" transform="rotate(0,181.5,161.5)"/><rect x="178" y="165" width="7" height="7" transform="rotate(0,181.5,168.5)"/><rect x="178" y="178" width="7" height="7" transform="rotate(0,181.5,181.5)"/><rect x="178" y="185" width="7" height="7" transform="rotate(0,181.5,188.5)"/><rect x="178" y="192" width="7" height="7" transform="rotate(0,181.5,195.5)"/><rect x="178" y="199" width="7" height="7" transform="rotate(0,181.5,202.5)"/><rect x="178" y="206" width="7" height="7" transform="rotate(0,181.5,209.5)"/><rect x="178" y="226" width="7" height="7" transform="rotate(0,181.5,229.5)"/><rect x="178" y="233" width="7" height="7" transform="rotate(0,181.5,236.5)"/><rect x="185" y="70" width="7" height="7" transform="rotate(0,188.5,73.5)"/><rect x="185" y="83" width="7" height="7" transform="rotate(0,188.5,86.5)"/><rect x="185" y="124" width="7" height="7" transform="rotate(0,188.5,127.5)"/><rect x="185" y="131" width="7" height="7" transform="rotate(0,188.5,134.5)"/><rect x="185" y="151" width="7" height="7" transform="rotate(0,188.5,154.5)"/><rect x="185" y="158" width="7" height="7" transform="rotate(0,188.5,161.5)"/><rect x="185" y="172" width="7" height="7" transform="rotate(0,188.5,175.5)"/><rect x="185" y="178" width="7" height="7" transform="rotate(0,188.5,181.5)"/><rect x="185" y="206" width="7" height="7" transform="rotate(0,188.5,209.5)"/><rect x="185" y="219" width="7" height="7" transform="rotate(0,188.5,222.5)"/><rect x="192" y="83" width="7" height="7" transform="rotate(0,195.5,86.5)"/><rect x="192" y="104" width="7" height="7" transform="rotate(0,195.5,107.5)"/><rect x="192" y="117" width="7" height="7" transform="rotate(0,195.5,120.5)"/><rect x="192" y="131" width="7" height="7" transform="rotate(0,195.5,134.5)"/><rect x="192" y="151" width="7" height="7" transform="rotate(0,195.5,154.5)"/><rect x="192" y="178" width="7" height="7" transform="rotate(0,195.5,181.5)"/><rect x="192" y="192" width="7" height="7" transform="rotate(0,195.5,195.5)"/><rect x="192" y="206" width="7" height="7" transform="rotate(0,195.5,209.5)"/><rect x="192" y="212" width="7" height="7" transform="rotate(0,195.5,215.5)"/><rect x="192" y="226" width="7" height="7" transform="rotate(0,195.5,229.5)"/><rect x="199" y="77" width="7" height="7" transform="rotate(0,202.5,80.5)"/><rect x="199" y="83" width="7" height="7" transform="rotate(0,202.5,86.5)"/><rect x="199" y="90" width="7" height="7" transform="rotate(0,202.5,93.5)"/><rect x="199" y="97" width="7" height="7" transform="rotate(0,202.5,100.5)"/><rect x="199" y="117" width="7" height="7" transform="rotate(0,202.5,120.5)"/><rect x="199" y="138" width="7" height="7" transform="rotate(0,202.5,141.5)"/><rect x="199" y="151" width="7" height="7" transform="rotate(0,202.5,154.5)"/><rect x="199" y="165" width="7" height="7" transform="rotate(0,202.5,168.5)"/><rect x="199" y="178" width="7" height="7" transform="rotate(0,202.5,181.5)"/><rect x="199" y="206" width="7" height="7" transform="rotate(0,202.5,209.5)"/><rect x="199" y="226" width="7" height="7" transform="rotate(0,202.5,229.5)"/><rect x="206" y="70" width="7" height="7" transform="rotate(0,209.5,73.5)"/><rect x="206" y="97" width="7" height="7" transform="rotate(0,209.5,100.5)"/><rect x="206" y="111" width="7" height="7" transform="rotate(0,209.5,114.5)"/><rect x="206" y="131" width="7" height="7" transform="rotate(0,209.5,134.5)"/><rect x="206" y="138" width="7" height="7" transform="rotate(0,209.5,141.5)"/><rect x="206" y="165" width="7" height="7" transform="rotate(0,209.5,168.5)"/><rect x="206" y="178" width="7" height="7" transform="rotate(0,209.5,181.5)"/><rect x="206" y="185" width="7" height="7" transform="rotate(0,209.5,188.5)"/><rect x="206" y="192" width="7" height="7" transform="rotate(0,209.5,195.5)"/><rect x="206" y="199" width="7" height="7" transform="rotate(0,209.5,202.5)"/><rect x="206" y="206" width="7" height="7" transform="rotate(0,209.5,209.5)"/><rect x="206" y="212" width="7" height="7" transform="rotate(0,209.5,215.5)"/><rect x="206" y="226" width="7" height="7" transform="rotate(0,209.5,229.5)"/><rect x="212" y="77" width="7" height="7" transform="rotate(0,215.5,80.5)"/><rect x="212" y="83" width="7" height="7" transform="rotate(0,215.5,86.5)"/><rect x="212" y="97" width="7" height="7" transform="rotate(0,215.5,100.5)"/><rect x="212" y="104" width="7" height="7" transform="rotate(0,215.5,107.5)"/><rect x="212" y="111" width="7" height="7" transform="rotate(0,215.5,114.5)"/><rect x="212" y="117" width="7" height="7" transform="rotate(0,215.5,120.5)"/><rect x="212" y="138" width="7" height="7" transform="rotate(0,215.5,141.5)"/><rect x="212" y="144" width="7" height="7" transform="rotate(0,215.5,147.5)"/><rect x="212" y="151" width="7" height="7" transform="rotate(0,215.5,154.5)"/><rect x="212" y="158" width="7" height="7" transform="rotate(0,215.5,161.5)"/><rect x="212" y="172" width="7" height="7" transform="rotate(0,215.5,175.5)"/><rect x="212" y="178" width="7" height="7" transform="rotate(0,215.5,181.5)"/><rect x="212" y="192" width="7" height="7" transform="rotate(0,215.5,195.5)"/><rect x="212" y="199" width="7" height="7" transform="rotate(0,215.5,202.5)"/><rect x="212" y="206" width="7" height="7" transform="rotate(0,215.5,209.5)"/><rect x="212" y="212" width="7" height="7" transform="rotate(0,215.5,215.5)"/><rect x="212" y="226" width="7" height="7" transform="rotate(0,215.5,229.5)"/><rect x="219" y="77" width="7" height="7" transform="rotate(0,222.5,80.5)"/><rect x="219" y="83" width="7" height="7" transform="rotate(0,222.5,86.5)"/><rect x="219" y="90" width="7" height="7" transform="rotate(0,222.5,93.5)"/><rect x="219" y="104" width="7" height="7" transform="rotate(0,222.5,107.5)"/><rect x="219" y="117" width="7" height="7" transform="rotate(0,222.5,120.5)"/><rect x="219" y="124" width="7" height="7" transform="rotate(0,222.5,127.5)"/><rect x="219" y="151" width="7" height="7" transform="rotate(0,222.5,154.5)"/><rect x="219" y="172" width="7" height="7" transform="rotate(0,222.5,175.5)"/><rect x="219" y="178" width="7" height="7" transform="rotate(0,222.5,181.5)"/><rect x="219" y="192" width="7" height="7" transform="rotate(0,222.5,195.5)"/><rect x="219" y="199" width="7" height="7" transform="rotate(0,222.5,202.5)"/><rect x="219" y="206" width="7" height="7" transform="rotate(0,222.5,209.5)"/><rect x="219" y="219" width="7" height="7" transform="rotate(0,222.5,222.5)"/><rect x="226" y="70" width="7" height="7" transform="rotate(0,229.5,73.5)"/><rect x="226" y="77" width="7" height="7" transform="rotate(0,229.5,80.5)"/><rect x="226" y="83" width="7" height="7" transform="rotate(0,229.5,86.5)"/><rect x="226" y="90" width="7" height="7" transform="rotate(0,229.5,93.5)"/><rect x="226" y="97" width="7" height="7" transform="rotate(0,229.5,100.5)"/><rect x="226" y="104" width="7" height="7" transform="rotate(0,229.5,107.5)"/><rect x="226" y="124" width="7" height="7" transform="rotate(0,229.5,127.5)"/><rect x="226" y="138" width="7" height="7" transform="rotate(0,229.5,141.5)"/><rect x="226" y="158" width="7" height="7" transform="rotate(0,229.5,161.5)"/><rect x="226" y="172" width="7" height="7" transform="rotate(0,229.5,175.5)"/><rect x="226" y="178" width="7" height="7" transform="rotate(0,229.5,181.5)"/><rect x="226" y="185" width="7" height="7" transform="rotate(0,229.5,188.5)"/><rect x="233" y="83" width="7" height="7" transform="rotate(0,236.5,86.5)"/><rect x="233" y="90" width="7" height="7" transform="rotate(0,236.5,93.5)"/><rect x="233" y="97" width="7" height="7" transform="rotate(0,236.5,100.5)"/><rect x="233" y="111" width="7" height="7" transform="rotate(0,236.5,114.5)"/><rect x="233" y="117" width="7" height="7" transform="rotate(0,236.5,120.5)"/><rect x="233" y="124" width="7" height="7" transform="rotate(0,236.5,127.5)"/><rect x="233" y="131" width="7" height="7" transform="rotate(0,236.5,134.5)"/><rect x="233" y="144" width="7" height="7" transform="rotate(0,236.5,147.5)"/><rect x="233" y="151" width="7" height="7" transform="rotate(0,236.5,154.5)"/><rect x="233" y="158" width="7" height="7" transform="rotate(0,236.5,161.5)"/><rect x="233" y="165" width="7" height="7" transform="rotate(0,236.5,168.5)"/><rect x="233" y="172" width="7" height="7" transform="rotate(0,236.5,175.5)"/><rect x="233" y="178" width="7" height="7" transform="rotate(0,236.5,181.5)"/><rect x="233" y="185" width="7" height="7" transform="rotate(0,236.5,188.5)"/><rect x="233" y="192" width="7" height="7" transform="rotate(0,236.5,195.5)"/><rect x="233" y="233" width="7" height="7" transform="rotate(0,236.5,236.5)"/></clipPath><clipPath id="clip-path-corners-square-color-0-0"><rect x="16" y="16" width="7" height="7" transform="rotate(0,19.5,19.5)"/><rect x="16" y="22" width="7" height="7" transform="rotate(0,19.5,25.5)"/><rect x="16" y="29" width="7" height="7" transform="rotate(0,19.5,32.5)"/><rect x="16" y="36" width="7" height="7" transform="rotate(0,19.5,39.5)"/><rect x="16" y="43" width="7" height="7" transform="rotate(0,19.5,46.5)"/><rect x="16" y="49" width="7" height="7" transform="rotate(0,19.5,52.5)"/><rect x="16" y="56" width="7" height="7" transform="rotate(0,19.5,59.5)"/><rect x="22" y="16" width="7" height="7" transform="rotate(0,25.5,19.5)"/><rect x="22" y="56" width="7" height="7" transform="rotate(0,25.5,59.5)"/><rect x="29" y="16" width="7" height="7" transform="rotate(0,32.5,19.5)"/><rect x="29" y="56" width="7" height="7" transform="rotate(0,32.5,59.5)"/><rect x="36" y="16" width="7" height="7" transform="rotate(0,39.5,19.5)"/><rect x="36" y="56" width="7" height="7" transform="rotate(0,39.5,59.5)"/><rect x="43" y="16" width="7" height="7" transform="rotate(0,46.5,19.5)"/><rect x="43" y="56" width="7" height="7" transform="rotate(0,46.5,59.5)"/><rect x="49" y="16" width="7" height="7" transform="rotate(0,52.5,19.5)"/><rect x="49" y="56" width="7" height="7" transform="rotate(0,52.5,59.5)"/><rect x="56" y="16" width="7" height="7" transform="rotate(0,59.5,19.5)"/><rect x="56" y="22" width="7" height="7" transform="rotate(0,59.5,25.5)"/><rect x="56" y="29" width="7" height="7" transform="rotate(0,59.5,32.5)"/><rect x="56" y="36" width="7" height="7" transform="rotate(0,59.5,39.5)"/><rect x="56" y="43" width="7" height="7" transform="rotate(0,59.5,46.5)"/><rect x="56" y="49" width="7" height="7" transform="rotate(0,59.5,52.5)"/><rect x="56" y="56" width="7" height="7" transform="rotate(0,59.5,59.5)"/></clipPath><clipPath id="clip-path-corners-dot-color-0-0"><rect x="29" y="29" width="7" height="7" transform="rotate(0,32.5,32.5)"/><rect x="29" y="36" width="7" height="7" transform="rotate(0,32.5,39.5)"/><rect x="29" y="43" width="7" height="7" transform="rotate(0,32.5,46.5)"/><rect x="36" y="29" width="7" height="7" transform="rotate(0,39.5,32.5)"/><rect x="36" y="36" width="7" height="7" transform="rotate(0,39.5,39.5)"/><rect x="36" y="43" width="7" height="7" transform="rotate(0,39.5,46.5)"/><rect x="43" y="29" width="7" height="7" transform="rotate(0,46.5,32.5)"/><rect x="43" y="36" width="7" height="7" transform="rotate(0,46.5,39.5)"/><rect x="43" y="43" width="7" height="7" transform="rotate(0,46.5,46.5)"/></clipPath><clipPath id="clip-path-corners-square-color-1-0"><rect x="192" y="16" width="7" height="7" transform="rotate(0,195.5,19.5)"/><rect x="192" y="22" width="7" height="7" transform="rotate(0,195.5,25.5)"/><rect x="192" y="29" width="7" height="7" transform="rotate(0,195.5,32.5)"/><rect x="192" y="36" width="7" height="7" transform="rotate(0,195.5,39.5)"/><rect x="192" y="43" width="7" height="7" transform="rotate(0,195.5,46.5)"/><rect x="192" y="49" width="7" height="7" transform="rotate(0,195.5,52.5)"/><rect x="192" y="56" width="7" height="7" transform="rotate(0,195.5,59.5)"/><rect x="199" y="16" width="7" height="7" transform="rotate(0,202.5,19.5)"/><rect x="199" y="56" width="7" height="7" transform="rotate(0,202.5,59.5)"/><rect x="206" y="16" width="7" height="7" transform="rotate(0,209.5,19.5)"/><rect x="206" y="56" width="7" height="7" transform="rotate(0,209.5,59.5)"/><rect x="212" y="16" width="7" height="7" transform="rotate(0,215.5,19.5)"/><rect x="212" y="56" width="7" height="7" transform="rotate(0,215.5,59.5)"/><rect x="219" y="16" width="7" height="7" transform="rotate(0,222.5,19.5)"/><rect x="219" y="56" width="7" height="7" transform="rotate(0,222.5,59.5)"/><rect x="226" y="16" width="7" height="7" transform="rotate(0,229.5,19.5)"/><rect x="226" y="56" width="7" height="7" transform="rotate(0,229.5,59.5)"/><rect x="233" y="16" width="7" height="7" transform="rotate(0,236.5,19.5)"/><rect x="233" y="22" width="7" height="7" transform="rotate(0,236.5,25.5)"/><rect x="233" y="29" width="7" height="7" transform="rotate(0,236.5,32.5)"/><rect x="233" y="36" width="7" height="7" transform="rotate(0,236.5,39.5)"/><rect x="233" y="43" width="7" height="7" transform="rotate(0,236.5,46.5)"/><rect x="233" y="49" width="7" height="7" transform="rotate(0,236.5,52.5)"/><rect x="233" y="56" width="7" height="7" transform="rotate(0,236.5,59.5)"/></clipPath><clipPath id="clip-path-corners-dot-color-1-0"><rect x="206" y="29" width="7" height="7" transform="rotate(0,209.5,32.5)"/><rect x="206" y="36" width="7" height="7" transform="rotate(0,209.5,39.5)"/><rect x="206" y="43" width="7" height="7" transform="rotate(0,209.5,46.5)"/><rect x="212" y="29" width="7" height="7" transform="rotate(0,215.5,32.5)"/><rect x="212" y="36" width="7" height="7" transform="rotate(0,215.5,39.5)"/><rect x="212" y="43" width="7" height="7" transform="rotate(0,215.5,46.5)"/><rect x="219" y="29" width="7" height="7" transform="rotate(0,222.5,32.5)"/><rect x="219" y="36" width="7" height="7" transform="rotate(0,222.5,39.5)"/><rect x="219" y="43" width="7" height="7" transform="rotate(0,222.5,46.5)"/></clipPath><clipPath id="clip-path-corners-square-color-0-1"><rect x="16" y="192" width="7" height="7" transform="rotate(0,19.5,195.5)"/><rect x="16" y="199" width="7" height="7" transform="rotate(0,19.5,202.5)"/><rect x="16" y="206" width="7" height="7" transform="rotate(0,19.5,209.5)"/><rect x="16" y="212" width="7" height="7" transform="rotate(0,19.5,215.5)"/><rect x="16" y="219" width="7" height="7" transform="rotate(0,19.5,222.5)"/><rect x="16" y="226" width="7" height="7" transform="rotate(0,19.5,229.5)"/><rect x="16" y="233" width="7" height="7" transform="rotate(0,19.5,236.5)"/><rect x="22" y="192" width="7" height="7" transform="rotate(0,25.5,195.5)"/><rect x="22" y="233" width="7" height="7" transform="rotate(0,25.5,236.5)"/><rect x="29" y="192" width="7" height="7" transform="rotate(0,32.5,195.5)"/><rect x="29" y="233" width="7" height="7" transform="rotate(0,32.5,236.5)"/><rect x="36" y="192" width="7" height="7" transform="rotate(0,39.5,195.5)"/><rect x="36" y="233" width="7" height="7" transform="rotate(0,39.5,236.5)"/><rect x="43" y="192" width="7" height="7" transform="rotate(0,46.5,195.5)"/><rect x="43" y="233" width="7" height="7" transform="rotate(0,46.5,236.5)"/><rect x="49" y="192" width="7" height="7" transform="rotate(0,52.5,195.5)"/><rect x="49" y="233" width="7" height="7" transform="rotate(0,52.5,236.5)"/><rect x="56" y="192" width="7" height="7" transform="rotate(0,59.5,195.5)"/><rect x="56" y="199" width="7" height="7" transform="rotate(0,59.5,202.5)"/><rect x="56" y="206" width="7" height="7" transform="rotate(0,59.5,209.5)"/><rect x="56" y="212" width="7" height="7" transform="rotate(0,59.5,215.5)"/><rect x="56" y="219" width="7" height="7" transform="rotate(0,59.5,222.5)"/><rect x="56" y="226" width="7" height="7" transform="rotate(0,59.5,229.5)"/><rect x="56" y="233" width="7" height="7" transform="rotate(0,59.5,236.5)"/></clipPath><clipPath id="clip-path-corners-dot-color-0-1"><rect x="29" y="206" width="7" height="7" transform="rotate(0,32.5,209.5)"/><rect x="29" y="212" width="7" height="7" transform="rotate(0,32.5,215.5)"/><rect x="29" y="219" width="7" height="7" transform="rotate(0,32.5,222.5)"/><rect x="36" y="206" width="7" height="7" transform="rotate(0,39.5,209.5)"/><rect x="36" y="212" width="7" height="7" transform="rotate(0,39.5,215.5)"/><rect x="36" y="219" width="7" height="7" transform="rotate(0,39.5,222.5)"/><rect x="43" y="206" width="7" height="7" transform="rotate(0,46.5,209.5)"/><rect x="43" y="212" width="7" height="7" transform="rotate(0,46.5,215.5)"/><rect x="43" y="219" width="7" height="7" transform="rotate(0,46.5,222.5)"/></clipPath></defs><rect x="0" y="0" height="256" width="256" clip-path="url('#clip-path-background-color')" fill="#fff"/><rect x="16" y="16" height="224" width="224" clip-path="url('#clip-path-dot-color')" fill="#000"/><rect x="16" y="16" height="48" width="48" clip-path="url('#clip-path-corners-square-color-0-0')" fill="#000"/><rect x="29" y="29" height="21" width="21" clip-path="url('#clip-path-corners-dot-color-0-0')" fill="#000"/><rect x="192" y="16" height="48" width="48" clip-path="url('#clip-path-corners-square-color-1-0')" fill="#000"/><rect x="206" y="29" height="21" width="21" clip-path="url('#clip-path-corners-dot-color-1-0')" fill="#000"/><rect x="16" y="192" height="48" width="48" clip-path="url('#clip-path-corners-square-color-0-1')" fill="#000"/><rect x="29" y="206" height="21" width="21" clip-path="url('#clip-path-corners-dot-color-0-1')" fill="#000"/></svg>